PathFileType	4	(X/Y/Z)	E:\Qualisys_Data\Carbon_Farble_Plate\Data\Amateur_Runner\S2\T1\S2T1V22_c3d.trc
DataRate	CameraRate	NumFrames	NumMarkers	Units	OrigDataRate	OrigDataStartFrame	OrigNumFrames
200.000000	200.000000	5	39	mm	200.000000	40	327
Frame#	Time	LSHO			RSHO			LICST			RICST			LASIS			LHEEL			RASIS			LTROC			RTROC			SACR			LTH1			LSK4			LTH2			LTH3			RHM5			LSK2			LTH4			RTH1			LTOE			RTH2			RTH3			RTH4			LLEP			RLEP			LSK1			LSK3			RSK1			LHM5			RSK2			LFT1			RSK3			RSK4			LLME			RLME			RTOE			RHEEL			RFT1			RFT2			LFT2			
		X1	Y1	Z1	X2	Y2	Z2	X3	Y3	Z3	X4	Y4	Z4	X5	Y5	Z5	X6	Y6	Z6	X7	Y7	Z7	X8	Y8	Z8	X9	Y9	Z9	X10	Y10	Z10	X11	Y11	Z11	X12	Y12	Z12	X13	Y13	Z13	X14	Y14	Z14	X15	Y15	Z15	X16	Y16	Z16	X17	Y17	Z17	X18	Y18	Z18	X19	Y19	Z19	X20	Y20	Z20	X21	Y21	Z21	X22	Y22	Z22	X23	Y23	Z23	X24	Y24	Z24	X25	Y25	Z25	X26	Y26	Z26	X27	Y27	Z27	X28	Y28	Z28	X29	Y29	Z29	X30	Y30	Z30	X31	Y31	Z31	X32	Y32	Z32	X33	Y33	Z33	X34	Y34	Z34	X35	Y35	Z35	X36	Y36	Z36	X37	Y37	Z37	X38	Y38	Z38	X39	Y39	Z39	

41	0.2	-2689.87646484375	1418.664306640625	-439.4231872558594	-2679.6640625	1379.9189453125	-122.8367614746094	-2772.036865234375	954.5367431640624	-455.4340209960938	-2791.711181640625	939.977783203125	-149.8327789306641	-2715.6396484375	904.3177490234376	-434.4178771972656	-3025.039794921875	529.1843872070312	-365.1497497558594	-2725.31396484375	899.8080444335938	-171.3991394042969	-2841.7216796875	827.398681640625	-456.8025207519531	-2873.070068359375	845.6912841796875	-156.2674102783203	-2866.109375	996.8114624023438	-308.7050170898438	-2626.976318359375	629.4037475585938	-468.0337829589844	-2840.03173828125	508.5621948242188	-448.8233642578125	-2708.387939453125	601.6895141601562	-483.6470031738281	-2594.904052734375	532.21875	-453.4174499511719	-2837.2890625	77.5272216796875	-197.2092895507812	-2741.68994140625	505.9768981933594	-466.4980163574219	-2677.3818359375	507.8393859863281	-456.5538024902344	-2702.872314453125	585.2498168945312	-155.4191284179688	-3032.8291015625	285.739013671875	-392.8131408691406	-2779.988037109375	576.22705078125	-159.5285186767578	-2691.257568359375	487.8223266601562	-184.4612426757812	-2771.4609375	482.8694152832031	-183.2837829589844	-2631.214599609375	474.3596496582031	-459.1210327148438	-2737.6396484375	450.2333984375	-180.0574951171875	-2742.910888671875	427.927978515625	-454.0508117675781	-2842.429931640625	429.642822265625	-444.0931396484375	-2752.58056640625	326.9380798339844	-190.6350708007812	-3053.8076171875	338.5978698730469	-454.3554077148438	-2819.58935546875	369.9507751464844	-175.2512817382812	-3048.283447265625	514.9998168945312	-337.1829528808594	-2810.68115234375	243.159912109375	-206.6762847900391	-2874.032470703125	287.1918029785156	-191.0399932861328	-3013.468994140625	472.5640563964844	-423.0505981445312	-2948.759765625	123.9196166992188	-232.0205230712891	-2778.35400390625	73.58209228515625	-263.6905517578125	-3014.4794921875	119.6491088867188	-289.5071716308594	-3004.6767578125	86.06168365478516	-316.2918701171875	-3020.498779296875	96.59626007080078	-263.5896911621094	-3053.83349609375	526.3275756835938	-389.2969970703125
42	0.205	-2672.639892578125	1421.769409179688	-439.7975158691406	-2657.76708984375	1383.461791992188	-123.8874588012695	-2752.568115234375	957.6854858398438	-455.5108032226562	-2769.539306640625	942.05419921875	-149.9612121582031	-2695.9599609375	907.7091674804688	-434.9685363769531	-2998.68408203125	520.6691284179688	-366.5923461914062	-2703.8603515625	901.2328491210938	-171.0152587890625	-2821.013671875	830.661865234375	-457.2094421386719	-2852.884033203125	847.7525634765625	-156.4839630126953	-2845.833251953125	999.2320556640624	-307.6592407226562	-2601.72265625	637.6580200195312	-466.8950500488281	-2811.726806640625	508.1081848144531	-448.62890625	-2679.913330078125	607.0956420898438	-479.7311096191406	-2566.926513671875	541.6241455078125	-451.5609436035156	-2837.05810546875	77.42664337158203	-197.6821441650391	-2712.97119140625	509.1499938964844	-465.4917602539062	-2648.023193359375	514.333984375	-455.2588500976562	-2692.14697265625	583.3237915039062	-154.5207824707031	-2993.994384765625	277.1861877441406	-392.2257995605469	-2769.521484375	576.8242797851562	-158.0543975830078	-2682.4140625	486.2981567382812	-184.7438049316406	-2763.6552734375	482.9139404296875	-182.9145050048828	-2599.98095703125	481.9107971191406	-458.1269226074219	-2730.294189453125	449.3678588867188	-180.0067901611328	-2711.33056640625	430.8363952636719	-452.6508178710938	-2810.793701171875	429.2914733886719	-443.22998046875	-2747.694580078125	326.5375366210938	-189.7906036376953	-3016.872314453125	330.1702880859375	-454.1301574707031	-2813.858154296875	370.5773315429688	-174.8196868896484	-3022.407470703125	506.2705688476562	-337.7805786132812	-2807.561279296875	244.3806762695312	-206.8438415527344	-2870.488525390625	289.4531860351562	-190.5984344482422	-2984.380126953125	465.3979187011719	-424.1734008789062	-2947.83837890625	126.1414031982422	-232.2358703613281	-2778.507568359375	73.23966217041016	-263.9064636230469	-3013.059814453125	122.422607421875	-290.2624816894531	-3004.531494140625	89.00853729248047	-317.2203369140625	-3014.886474609375	99.6430206298828	-263.9082336425781	-3028.015869140625	517.9003295898438	-392.0868225097656
43	0.21	-2655.830078125	1425.445678710938	-440.32275390625	-2636.01708984375	1387.169921875	-125.1351318359375	-2731.947998046875	960.88720703125	-455.0558776855469	-2748.372802734375	945.3055419921876	-149.8399353027344	-2676.4287109375	911.0907592773438	-434.7442321777344	-2972.982177734375	512.382080078125	-367.5924072265625	-2683.2421875	903.1427001953124	-171.0655212402344	-2800.298828125	834.3223266601562	-457.9682922363281	-2833.572265625	850.052978515625	-156.7843933105469	-2825.018310546875	1002.065979003906	-306.3619079589844	-2577.1875	646.3261108398438	-465.5791320800781	-2783.76708984375	507.41552734375	-448.274169921875	-2654.3037109375	613.3001708984375	-478.5891418457031	-2538.956787109375	551.3714599609375	-449.6266479492188	-2836.895751953125	78.01167297363281	-198.5381164550781	-2685.207763671875	512.6534423828125	-464.1611938476562	-2619.42431640625	521.2117919921875	-453.7886657714844	-2681.263671875	582.8402099609375	-153.3175506591797	-2954.126220703125	269.1160278320312	-393.1632385253906	-2759.031982421875	578.1157836914062	-158.2345123291016	-2675.576904296875	485.27880859375	-184.3995513916016	-2756.65869140625	484.6871948242188	-182.6157379150391	-2571.041748046875	491.1204833984375	-456.9075012207031	-2722.601318359375	450.4276733398438	-179.8302307128906	-2680.09814453125	434.3482360839844	-451.0653686523438	-2780.12646484375	429.0040588378906	-443.6777038574219	-2743.64453125	326.9175109863281	-189.4227294921875	-2980.04736328125	320.7955627441406	-454.4730224609375	-2808.941650390625	372.4801635742188	-173.4579010009766	-2995.237548828125	495.5959777832031	-338.0887451171875	-2802.26806640625	245.6583709716797	-206.6876525878906	-2866.15185546875	291.6934814453125	-191.0754241943359	-2955.220947265625	457.4355163574219	-424.8556518554688	-2945.545166015625	128.9678344726562	-232.1701507568359	-2778.457275390625	72.60682678222656	-264.115234375	-3012.549072265625	125.9496612548828	-291.4773864746094	-3003.946533203125	92.4666748046875	-318.703857421875	-3019.28955078125	102.4193572998047	-263.3612365722656	-3002.04052734375	507.2791442871094	-392.2803344726562
44	0.215	-2638.713623046875	1428.800903320312	-441.4628295898438	-2614.855712890625	1391.732788085938	-126.87548828125	-2712.663818359375	964.7814331054688	-455.1879577636719	-2727.595947265625	948.3131713867188	-150.4489135742188	-2656.31494140625	915.2354125976562	-433.783203125	-2947.360107421875	503.2503051757812	-368.4352111816406	-2662.0966796875	905.4200439453124	-170.7665405273438	-2779.1708984375	838.4733276367188	-458.9255676269531	-2812.765625	853.047607421875	-157.0535278320312	-2804.634765625	1005.160034179688	-305.45947265625	-2552.62158203125	655.2344360351562	-463.6598205566406	-2756.054443359375	507.3399047851562	-448.1402893066406	-2628.14306640625	619.2423706054688	-476.962158203125	-2511.904296875	561.6536865234375	-447.3419799804688	-2836.99267578125	78.29325103759766	-199.1208648681641	-2657.399169921875	516.21435546875	-462.8727722167969	-2590.801513671875	528.2526245117188	-452.0321960449219	-2670.286865234375	582.2074584960938	-153.6123046875	-2914.838623046875	262.5369873046875	-393.3435363769531	-2749.001708984375	580.8841552734375	-158.6194915771484	-2667.838134765625	484.6720275878906	-183.7164306640625	-2747.90771484375	486.7096557617188	-182.3626556396484	-2541.75146484375	500.1971435546875	-454.3330993652344	-2715.478515625	451.8967895507812	-179.0992431640625	-2649.52880859375	438.2320251464844	-450.0874633789062	-2750.3544921875	430.7344665527344	-443.843994140625	-2739.415771484375	328.1586608886719	-190.2699279785156	-2942.8466796875	311.6297302246094	-454.98583984375	-2804.34716796875	374.6142883300781	-173.1339416503906	-2968.294677734375	484.8901672363281	-338.8085632324219	-2799.857177734375	248.1045684814453	-207.0390625	-2862.616455078125	295.2076416015625	-190.954345703125	-2925.4716796875	448.96875	-425.3894653320312	-2943.937255859375	133.1992340087891	-232.5286407470703	-2778.59521484375	72.27664947509766	-264.2294921875	-3011.704345703125	130.0147247314453	-294.0968627929688	-3002.149169921875	95.60557556152344	-319.4684753417969	-3016.9501953125	106.1400527954102	-264.5654296875	-2975.423095703125	496.4574584960938	-393.0757446289062
45	0.22	-2621.816162109375	1433.02490234375	-442.2846069335938	-2593.47802734375	1396.466552734375	-128.4941101074219	-2692.6142578125	969.1516723632812	-454.9236450195312	-2704.4169921875	951.967041015625	-150.3517608642578	-2636.361083984375	919.8606567382812	-434.2560119628906	-2921.23046875	493.15625	-369.1909790039062	-2640.8974609375	907.869140625	-171.0917358398438	-2758.19775390625	842.9625854492188	-459.7294616699219	-2792.004150390625	855.4888305664062	-157.0310668945312	-2783.570556640625	1008.588989257812	-304.41650390625	-2528.80078125	664.2915649414062	-462.7213439941406	-2728.662353515625	506.1716918945312	-448.0993957519531	-2603.51025390625	626.4461669921875	-476.076904296875	-2485.483642578125	571.8265991210938	-445.6431274414062	-2836.4794921875	79.1478271484375	-199.7249450683594	-2630.443115234375	519.57958984375	-461.6639404296875	-2563.822998046875	536.4978637695312	-450.9620971679688	-2659.846435546875	582.5352172851562	-152.6254577636719	-2873.77490234375	253.0658416748047	-393.41064453125	-2737.72802734375	583.9594116210938	-158.2951965332031	-2659.773193359375	485.1253967285156	-183.4634552001953	-2740.4580078125	490.0658874511719	-182.1917419433594	-2514.552001953125	509.4317016601562	-452.9768981933594	-2708.783203125	453.2693786621094	-179.5218505859375	-2618.804443359375	442.2078247070312	-449.0351257324219	-2718.03466796875	428.6321105957031	-441.7920227050781	-2734.3291015625	330.3795776367188	-189.858154296875	-2904.093017578125	302.3291015625	-455.4268188476562	-2799.354736328125	377.9091186523438	-173.2344360351562	-2941.3798828125	474.0218200683594	-339.9718933105469	-2795.38330078125	250.9575805664062	-207.4912261962891	-2857.5576171875	298.46826171875	-190.8396453857422	-2895.456787109375	439.8719787597656	-425.2341613769531	-2941.3857421875	137.1665649414062	-233.15576171875	-2778.67138671875	72.29359436035156	-264.4544982910156	-3009.558837890625	134.7379608154297	-294.7772521972656	-3000.230224609375	100.0550689697266	-319.9754028320312	-3015.698486328125	111.4991683959961	-265.2835388183594	-2948.22265625	484.6682739257812	-394.0513000488281
